<svg width="270" height="137" viewBox="0 0 266 137" fill="none" xmlns="http://www.w3.org/2000/svg">
<path fill-rule="evenodd" clip-rule="evenodd" d="M210.233 27.1287H55.7674C46.7176 27.1287 39.0424 33.7357 37.7524 42.6365L28.008 109.871H237.992L228.248 42.6365C226.958 33.7357 219.282 27.1287 210.233 27.1287ZM55.7674 0C33.1428 0 13.9548 16.5175 10.7298 38.7695L0.236661 111.17C-1.73837 124.798 8.8999 137 22.7555 137H243.245C257.1 137 267.738 124.798 265.763 111.17L255.27 38.7695C252.045 16.5175 232.857 0 210.233 0H55.7674Z" fill="#2D2D2D"/>
<path d="M74.7571 10.6254C74.7571 8.25314 76.6924 6.33003 79.0798 6.33003H130.952C133.34 6.33003 135.275 8.25314 135.275 10.6254C135.275 12.9977 133.34 14.9208 130.952 14.9208H79.0798C76.6924 14.9208 74.7571 12.9977 74.7571 10.6254Z" fill="#8F8F8F"/>
<path d="M68.8418 10.6254C68.8418 12.9977 66.8046 14.9208 64.2915 14.9208C61.7785 14.9208 59.7413 12.9977 59.7413 10.6254C59.7413 8.25314 61.7785 6.33003 64.2915 6.33003C66.8046 6.33003 68.8418 8.25314 68.8418 10.6254Z" fill="#8F8F8F"/>
</svg>
